M48
;GenerationSoftware,Autodesk,EAGLE,9.6.2*%
;CreationDate,2022-08-23T17:09:40Z*%
FMAT,2
ICI,OFF
METRIC,TZ,000.000
T5C0.350
T4C0.800
T3C0.813
T2C1.000
T1C3.683
%
G90
M71
T1
X87630Y44450
X36830Y59690
X35560Y11430
X87630Y16510
T2
X80010Y59690
X80010Y11430
X82550Y11430
X85090Y11430
X67310Y11430
X49530Y11430
X62230Y11430
X59690Y11430
X57150Y11430
X54610Y11430
X42926Y59690
X40386Y59690
X52070Y11430
X74930Y59690
X72390Y11430
X77470Y59690
X64770Y11430
X82550Y59690
X85090Y59690
X72390Y59690
X69850Y59690
X67310Y59690
X63246Y59690
X60706Y59690
X58166Y59690
X55626Y59690
X53086Y59690
X50546Y59690
X48006Y59690
X45466Y59690
X74930Y11430
X77470Y11430
T3
X68199Y21717
X68199Y24217
X68199Y26717
X75057Y16717
X75057Y19217
X75057Y21717
X75057Y24217
X75057Y26717
X43775Y11430
X41275Y11430
X83058Y16383
X81026Y16383
X25400Y35814
X41275Y50927
X41275Y53467
X51009Y51054
X51009Y53594
X60744Y50927
X60744Y53467
X70478Y50927
X70478Y53467
X58293Y34722
X58293Y44882
X61849Y34722
X61849Y44882
X65405Y34722
X65405Y44882
X68961Y34722
X68961Y44882
X72517Y34722
X72517Y44882
X76073Y34722
X76073Y44882
X79629Y44882
X79629Y34722
X83185Y44882
X83185Y34722
X25400Y38314
X51181Y34722
X51181Y44882
X42291Y35814
X42291Y38314
X42291Y40814
X42291Y43314
X68199Y19217
X34265Y35914
X34265Y38414
X34265Y40914
X34290Y46863
X34290Y49363
X34290Y51863
X34290Y54363
X81534Y48514
X81534Y51014
X81534Y53514
X81534Y56014
X45617Y48514
X45617Y51014
X45617Y53514
X45617Y56014
X55352Y48514
X55352Y51014
X55352Y53514
X55352Y56014
X65086Y48514
X65086Y51014
X65086Y53514
X65086Y56014
X74820Y48514
X74820Y51014
X74820Y53514
X74820Y56014
X84288Y29972
X81788Y29972
X84288Y22733
X81788Y22733
X47625Y34722
X47625Y44882
X54737Y34722
X54737Y44882
X68199Y16717
T4
X25400Y31369
X45720Y16129
X48260Y16129
X50800Y16129
X53340Y16129
X45720Y31369
X55880Y16129
X58420Y16129
X60960Y31369
X58420Y31369
X55880Y31369
X53340Y31369
X50800Y31369
X25400Y16129
X27940Y16129
X30480Y16129
X33020Y16129
X35560Y16129
X38100Y16129
X40640Y16129
X48260Y31369
X60960Y16129
X43180Y16129
X43180Y31369
X40640Y31369
X38100Y31369
X35560Y31369
X33020Y31369
X30480Y31369
X27940Y31369
T5
X41910Y28575
X23495Y47625
X30480Y34290
X57150Y26035
X59690Y26670
X78105Y13335
X52070Y24765
X40005Y18415
X58420Y22225
X38735Y18415
X32385Y18415
X39370Y27940
X64770Y25400
M30