G04 EAGLE Gerber RS-274X export*
G75*
%MOMM*%
%FSLAX34Y34*%
%LPD*%
%IN*%
%IPPOS*%
%AMOC8*
5,1,8,0,0,1.08239X$1,22.5*%
G01*
%ADD10C,0.254000*%


D10*
X215900Y89154D02*
X216154Y88900D01*
X876300Y88900D01*
X876300Y114300D01*
X901700Y139700D01*
X901700Y469900D01*
X876300Y495300D01*
X876300Y609600D01*
X863600Y622300D01*
X215900Y622300D01*
X215900Y89154D01*
X386715Y596297D02*
X386636Y595094D01*
X386479Y593899D01*
X386244Y592716D01*
X385932Y591552D01*
X385544Y590410D01*
X385083Y589296D01*
X384549Y588215D01*
X383946Y587170D01*
X383277Y586168D01*
X382543Y585211D01*
X381748Y584305D01*
X380895Y583452D01*
X379989Y582657D01*
X379032Y581923D01*
X378030Y581254D01*
X376985Y580651D01*
X375904Y580117D01*
X374790Y579656D01*
X373648Y579269D01*
X372484Y578956D01*
X371301Y578721D01*
X370106Y578564D01*
X368903Y578485D01*
X367697Y578485D01*
X366494Y578564D01*
X365299Y578721D01*
X364116Y578956D01*
X362952Y579269D01*
X361810Y579656D01*
X360696Y580117D01*
X359615Y580651D01*
X358570Y581254D01*
X357568Y581923D01*
X356611Y582657D01*
X355705Y583452D01*
X354852Y584305D01*
X354057Y585211D01*
X353323Y586168D01*
X352654Y587170D01*
X352051Y588215D01*
X351517Y589296D01*
X351056Y590410D01*
X350669Y591552D01*
X350356Y592716D01*
X350121Y593899D01*
X349964Y595094D01*
X349885Y596297D01*
X349885Y597503D01*
X349964Y598706D01*
X350121Y599901D01*
X350356Y601084D01*
X350669Y602248D01*
X351056Y603390D01*
X351517Y604504D01*
X352051Y605585D01*
X352654Y606630D01*
X353323Y607632D01*
X354057Y608589D01*
X354852Y609495D01*
X355705Y610348D01*
X356611Y611143D01*
X357568Y611877D01*
X358570Y612546D01*
X359615Y613149D01*
X360696Y613683D01*
X361810Y614144D01*
X362952Y614532D01*
X364116Y614844D01*
X365299Y615079D01*
X366494Y615236D01*
X367697Y615315D01*
X368903Y615315D01*
X370106Y615236D01*
X371301Y615079D01*
X372484Y614844D01*
X373648Y614532D01*
X374790Y614144D01*
X375904Y613683D01*
X376985Y613149D01*
X378030Y612546D01*
X379032Y611877D01*
X379989Y611143D01*
X380895Y610348D01*
X381748Y609495D01*
X382543Y608589D01*
X383277Y607632D01*
X383946Y606630D01*
X384549Y605585D01*
X385083Y604504D01*
X385544Y603390D01*
X385932Y602248D01*
X386244Y601084D01*
X386479Y599901D01*
X386636Y598706D01*
X386715Y597503D01*
X386715Y596297D01*
X374015Y113697D02*
X373936Y112494D01*
X373779Y111299D01*
X373544Y110116D01*
X373232Y108952D01*
X372844Y107810D01*
X372383Y106696D01*
X371849Y105615D01*
X371246Y104570D01*
X370577Y103568D01*
X369843Y102611D01*
X369048Y101705D01*
X368195Y100852D01*
X367289Y100057D01*
X366332Y99323D01*
X365330Y98654D01*
X364285Y98051D01*
X363204Y97517D01*
X362090Y97056D01*
X360948Y96669D01*
X359784Y96356D01*
X358601Y96121D01*
X357406Y95964D01*
X356203Y95885D01*
X354997Y95885D01*
X353794Y95964D01*
X352599Y96121D01*
X351416Y96356D01*
X350252Y96669D01*
X349110Y97056D01*
X347996Y97517D01*
X346915Y98051D01*
X345870Y98654D01*
X344868Y99323D01*
X343911Y100057D01*
X343005Y100852D01*
X342152Y101705D01*
X341357Y102611D01*
X340623Y103568D01*
X339954Y104570D01*
X339351Y105615D01*
X338817Y106696D01*
X338356Y107810D01*
X337969Y108952D01*
X337656Y110116D01*
X337421Y111299D01*
X337264Y112494D01*
X337185Y113697D01*
X337185Y114903D01*
X337264Y116106D01*
X337421Y117301D01*
X337656Y118484D01*
X337969Y119648D01*
X338356Y120790D01*
X338817Y121904D01*
X339351Y122985D01*
X339954Y124030D01*
X340623Y125032D01*
X341357Y125989D01*
X342152Y126895D01*
X343005Y127748D01*
X343911Y128543D01*
X344868Y129277D01*
X345870Y129946D01*
X346915Y130549D01*
X347996Y131083D01*
X349110Y131544D01*
X350252Y131932D01*
X351416Y132244D01*
X352599Y132479D01*
X353794Y132636D01*
X354997Y132715D01*
X356203Y132715D01*
X357406Y132636D01*
X358601Y132479D01*
X359784Y132244D01*
X360948Y131932D01*
X362090Y131544D01*
X363204Y131083D01*
X364285Y130549D01*
X365330Y129946D01*
X366332Y129277D01*
X367289Y128543D01*
X368195Y127748D01*
X369048Y126895D01*
X369843Y125989D01*
X370577Y125032D01*
X371246Y124030D01*
X371849Y122985D01*
X372383Y121904D01*
X372844Y120790D01*
X373232Y119648D01*
X373544Y118484D01*
X373779Y117301D01*
X373936Y116106D01*
X374015Y114903D01*
X374015Y113697D01*
X894715Y164497D02*
X894636Y163294D01*
X894479Y162099D01*
X894244Y160916D01*
X893932Y159752D01*
X893544Y158610D01*
X893083Y157496D01*
X892549Y156415D01*
X891946Y155370D01*
X891277Y154368D01*
X890543Y153411D01*
X889748Y152505D01*
X888895Y151652D01*
X887989Y150857D01*
X887032Y150123D01*
X886030Y149454D01*
X884985Y148851D01*
X883904Y148317D01*
X882790Y147856D01*
X881648Y147469D01*
X880484Y147156D01*
X879301Y146921D01*
X878106Y146764D01*
X876903Y146685D01*
X875697Y146685D01*
X874494Y146764D01*
X873299Y146921D01*
X872116Y147156D01*
X870952Y147469D01*
X869810Y147856D01*
X868696Y148317D01*
X867615Y148851D01*
X866570Y149454D01*
X865568Y150123D01*
X864611Y150857D01*
X863705Y151652D01*
X862852Y152505D01*
X862057Y153411D01*
X861323Y154368D01*
X860654Y155370D01*
X860051Y156415D01*
X859517Y157496D01*
X859056Y158610D01*
X858669Y159752D01*
X858356Y160916D01*
X858121Y162099D01*
X857964Y163294D01*
X857885Y164497D01*
X857885Y165703D01*
X857964Y166906D01*
X858121Y168101D01*
X858356Y169284D01*
X858669Y170448D01*
X859056Y171590D01*
X859517Y172704D01*
X860051Y173785D01*
X860654Y174830D01*
X861323Y175832D01*
X862057Y176789D01*
X862852Y177695D01*
X863705Y178548D01*
X864611Y179343D01*
X865568Y180077D01*
X866570Y180746D01*
X867615Y181349D01*
X868696Y181883D01*
X869810Y182344D01*
X870952Y182732D01*
X872116Y183044D01*
X873299Y183279D01*
X874494Y183436D01*
X875697Y183515D01*
X876903Y183515D01*
X878106Y183436D01*
X879301Y183279D01*
X880484Y183044D01*
X881648Y182732D01*
X882790Y182344D01*
X883904Y181883D01*
X884985Y181349D01*
X886030Y180746D01*
X887032Y180077D01*
X887989Y179343D01*
X888895Y178548D01*
X889748Y177695D01*
X890543Y176789D01*
X891277Y175832D01*
X891946Y174830D01*
X892549Y173785D01*
X893083Y172704D01*
X893544Y171590D01*
X893932Y170448D01*
X894244Y169284D01*
X894479Y168101D01*
X894636Y166906D01*
X894715Y165703D01*
X894715Y164497D01*
X894715Y443897D02*
X894636Y442694D01*
X894479Y441499D01*
X894244Y440316D01*
X893932Y439152D01*
X893544Y438010D01*
X893083Y436896D01*
X892549Y435815D01*
X891946Y434770D01*
X891277Y433768D01*
X890543Y432811D01*
X889748Y431905D01*
X888895Y431052D01*
X887989Y430257D01*
X887032Y429523D01*
X886030Y428854D01*
X884985Y428251D01*
X883904Y427717D01*
X882790Y427256D01*
X881648Y426869D01*
X880484Y426556D01*
X879301Y426321D01*
X878106Y426164D01*
X876903Y426085D01*
X875697Y426085D01*
X874494Y426164D01*
X873299Y426321D01*
X872116Y426556D01*
X870952Y426869D01*
X869810Y427256D01*
X868696Y427717D01*
X867615Y428251D01*
X866570Y428854D01*
X865568Y429523D01*
X864611Y430257D01*
X863705Y431052D01*
X862852Y431905D01*
X862057Y432811D01*
X861323Y433768D01*
X860654Y434770D01*
X860051Y435815D01*
X859517Y436896D01*
X859056Y438010D01*
X858669Y439152D01*
X858356Y440316D01*
X858121Y441499D01*
X857964Y442694D01*
X857885Y443897D01*
X857885Y445103D01*
X857964Y446306D01*
X858121Y447501D01*
X858356Y448684D01*
X858669Y449848D01*
X859056Y450990D01*
X859517Y452104D01*
X860051Y453185D01*
X860654Y454230D01*
X861323Y455232D01*
X862057Y456189D01*
X862852Y457095D01*
X863705Y457948D01*
X864611Y458743D01*
X865568Y459477D01*
X866570Y460146D01*
X867615Y460749D01*
X868696Y461283D01*
X869810Y461744D01*
X870952Y462132D01*
X872116Y462444D01*
X873299Y462679D01*
X874494Y462836D01*
X875697Y462915D01*
X876903Y462915D01*
X878106Y462836D01*
X879301Y462679D01*
X880484Y462444D01*
X881648Y462132D01*
X882790Y461744D01*
X883904Y461283D01*
X884985Y460749D01*
X886030Y460146D01*
X887032Y459477D01*
X887989Y458743D01*
X888895Y457948D01*
X889748Y457095D01*
X890543Y456189D01*
X891277Y455232D01*
X891946Y454230D01*
X892549Y453185D01*
X893083Y452104D01*
X893544Y450990D01*
X893932Y449848D01*
X894244Y448684D01*
X894479Y447501D01*
X894636Y446306D01*
X894715Y445103D01*
X894715Y443897D01*
M02*
